<?xml version="1.0" encoding="UTF-8" standalone="no"?>
<svg
   xml:space="preserve"
   viewBox="0 0 512 512"
   version="1.1"
   id="svg931"
   sodipodi:docname="icon.svg"
   inkscape:version="1.1.2 (0a00cf5339, 2022-02-04, custom)"
   xmlns:inkscape="http://www.inkscape.org/namespaces/inkscape"
   xmlns:sodipodi="http://sodipodi.sourceforge.net/DTD/sodipodi-0.dtd"
   xmlns="http://www.w3.org/2000/svg"
   xmlns:svg="http://www.w3.org/2000/svg"><defs
   id="defs935" /><sodipodi:namedview
   id="namedview933"
   pagecolor="#505050"
   bordercolor="#eeeeee"
   borderopacity="1"
   inkscape:pageshadow="0"
   inkscape:pageopacity="0"
   inkscape:pagecheckerboard="0"
   showgrid="false"
   inkscape:zoom="0.20336914"
   inkscape:cx="-189.31092"
   inkscape:cy="867.87995"
   inkscape:window-width="1904"
   inkscape:window-height="1032"
   inkscape:window-x="8"
   inkscape:window-y="40"
   inkscape:window-maximized="0"
   inkscape:current-layer="g929" />
  <g
   id="g929">
    <path
   fill="#2b4d66"
   d="m 342.66614,164.87004 -14,-7 a 57,57 0 0 0 -48,0 l -14,7 -13,-28 14,-7 a 87,87 0 0 1 74,0 l 14,7 z m -294.999996,100 h -8 c -8,-3 -13,-12 -10,-20 l 13,-34 c 5,-14 18,-25 33,-28 l 123.999996,-25 a 15.297059,15.297059 0 0 1 6,30 l -123.999996,25 c -5,1 -9,4 -10,9 l -13,33 c -2,6 -6,9 -11,10 z"
   data-original="#2b4d66"
   id="path893" />
    <g
   fill="#365e7d"
   id="g899"
   transform="translate(-2.3338556,75.870043)">
      <circle
   cx="393.70001"
   cy="113.8"
   r="72.5"
   data-original="#365e7d"
   id="circle895" />
      <circle
   cx="220"
   cy="113.8"
   r="72.5"
   data-original="#365e7d"
   id="circle897" />
    </g>
    <circle
   cx="391.36615"
   cy="189.67004"
   r="44.200001"
   fill="#ecf4ff"
   data-original="#ecf4ff"
   id="circle901" />
    <circle
   cx="217.66614"
   cy="189.67004"
   r="44.200001"
   fill="#ecf4ff"
   data-original="#ecf4ff"
   id="circle903" />
    
    
    
    
    
    <path
   fill="#ecf4ff"
   d="m 47.666144,363.87004 18,19 H 433.66614 c 20,0 37,-16 37,-36 v -41 c 0,-13 -12,-25 -25,-25 H 63.666144 l -16,13 a 45,45 0 0 1 0,70 z"
   data-original="#ecf4ff"
   id="path915" />
    <path
   fill="#ddeafb"
   d="m 47.666144,293.87004 c 9,8 14,17 16,28 H 470.66614 v -10 c 0,-17 -14,-31 -31,-31 H 63.666144 Z"
   data-original="#ddeafb"
   id="path917" />
    <path
   fill="#a84d23"
   d="m 457.66614,327.87004 c 0,20 -16,36 -36,36 H 40.666144 a 16.5,16.5 0 1 0 0,33 H 421.66614 a 68,68 0 0 0 68,-68 c 0,-38 -31,-68 -69,-68 H 40.666144 a 16.5,16.5 0 1 0 0,33 H 421.66614 c 19,0 35,15 36,34 z"
   data-original="#95d6a4"
   id="path919" />
    <path
   fill="#7c3a1b"
   d="m 58.666144,380.87004 a 16,16 0 0 0 16,16 h -34 a 16.5,16.5 0 1 1 0,-33 h 34 c -9,0 -16,8 -16,17 z m 0,-103 a 16,16 0 0 0 16,16 h -34 a 16,16 0 0 1 -17,-16 c 0,-9 8,-17 17,-17 h 34 c -9,0 -16,8 -16,17 z"
   data-original="#78c2a4"
   id="path921" />
    <path
   fill="#ddeafb"
   d="m 421.66614,346.87004 h -152 a 8,8 0 1 1 0,-15 h 152 a 8,8 0 1 1 0,15 z"
   data-original="#ddeafb"
   id="path923" />
    <path
   fill="#d57080"
   d="m 421.66614,331.87004 v 74.94541 c 0,3.87648 -6,6.46081 -12,4.52256 l -30,-9.69121 c -3,-1.29217 -5,-1.29217 -8,0 l -30,9.69121 c -6,1.93825 -12,-0.64608 -12,-4.52256 v -74.94541 z"
   data-original="#d57080"
   id="path925"
   style="stroke-width:0.803792" />
    <path
   fill="#cb5769"
   d="m 329.66614,331.87004 h 92 v 33 h -92 z"
   data-original="#cb5769"
   id="path927" />
  </g>
</svg>
